<svg xmlns="http://www.w3.org/2000/svg" class="bi bi-person" fill="currentColor" viewBox="0 0 20 20" width="1em" height="1em">
  <path clip-rule="evenodd" fill-rule="evenodd" d="M 15 16 s 1 0 1 -1 s -1 -4 -6 -4 s -6 3 -6 4 s 1 1 1 1 h 10 Z m -9.995 -0.944 v -0.002 Z M 5.022 15 h 9.956 a 0.274 0.274 0 0 0 0.014 -0.002 l 0.008 -0.002 c -0.001 -0.246 -0.154 -0.986 -0.832 -1.664 C 13.516 12.68 12.289 12 10 12 c -2.29 0 -3.516 0.68 -4.168 1.332 c -0.678 0.678 -0.83 1.418 -0.832 1.664 a 1.05 1.05 0 0 0 0.022 0.004 Z m 9.974 0.056 v -0.002 Z M 10 9 a 2 2 0 1 0 0 -4 a 2 2 0 0 0 0 4 Z m 3 -2 a 3 3 0 1 1 -6 0 a 3 3 0 0 1 6 0 Z"/>
</svg>